<svg width="80" height="80" viewBox="0 0 80 80" fill="none" xmlns="http://www.w3.org/2000/svg">
<path d="M40.0752 0.900132C18.4665 0.900132 0.949951 18.4029 0.949951 39.9936C0.949951 61.5843 18.4665 79.0898 40.0752 79.0898C61.6839 79.0898 79.2018 61.5843 79.2018 39.9936C79.2018 18.4029 61.6839 0.900132 40.0752 0.900132Z" fill="#0046AD"/>
<path d="M79.1639 38.2615C77.8549 34.6155 76.3426 31.3592 73.7684 27.6243C69.1411 20.9042 63.9518 18.1464 63.9518 18.1464L63.9617 9.03002L63.2712 8.50896L62.6245 8.04297L61.7405 7.43578L60.7789 6.81588L59.967 6.32306L59.2963 5.93615V74.0535L59.9783 73.6482L60.7817 73.1695L61.8973 72.4437L63.1229 71.5866L63.884 71.0119L63.9207 41.5841C63.9207 41.5841 66.6291 44.4182 68.219 50.6426C70.0222 57.7016 70.0547 64.7549 70.0547 64.7549C70.0632 64.8552 70.0703 64.971 70.0759 65.0938C70.0787 65.1419 70.7382 64.3031 71.5007 63.2723C71.848 62.8049 72.2152 62.2965 72.5541 61.8122C73.3067 60.7333 73.8701 59.7519 73.8701 59.7251C73.8701 59.7251 74.3728 53.0742 70.8751 44.4012C67.8689 36.9511 63.932 33.6511 63.932 33.6511L63.9419 24.9611C63.9899 24.9781 64.0408 24.9978 64.0958 25.0261C66.7378 26.3958 70.323 30.6814 72.475 34.5731C76.5106 41.875 77.7914 49.3703 77.7914 49.3703C77.9043 49.7403 77.7914 49.3703 77.9255 49.9337C77.9368 49.9803 78.4381 47.7055 78.4649 47.5784C78.5779 47.063 78.7784 45.8839 78.8434 45.3092C78.962 44.2685 79.0806 43.1995 79.1342 42.3099C79.2062 41.1351 79.1935 40.2709 79.2006 40.196C79.2415 39.7894 79.1695 38.2798 79.1639 38.2615ZM53.5026 3.2645L52.6582 2.96654L51.9056 2.72084L50.9863 2.44125L50.0826 2.19131V21.1443C50.0826 21.1443 46.3463 20.0132 43.0336 14.2773C40.3069 9.55814 40.6924 1.41043 40.6924 0.900673L39.5614 0.904907L38.5009 0.931738L37.4617 0.986811L36.7669 1.03906L35.6104 1.31018C35.8943 8.11499 36.8262 13.7901 39.7351 18.3046C44.2226 25.2675 50.0826 26.5652 50.0826 26.5652V40.1862C44.8453 36.9652 36.9872 31.5047 33.0151 9.98035C32.4842 7.10959 30.4917 7.11241 28.7464 7.77468C23.2846 9.84479 18.8861 16.1667 16.5618 18.1732C16.1439 18.5347 15.7089 18.7239 15.5536 19.1179C15.3983 19.5119 15.9448 20.0598 16.2512 20.2998C16.5886 20.5639 16.9586 20.5116 17.7268 20.7729C19.0061 21.2092 20.2106 22.5846 21.1411 23.2949C22.0731 24.0023 24.1672 25.2365 25.4083 25.4214C26.0028 25.6573 25.9774 25.8408 25.952 26.208C25.9266 26.5765 25.5651 26.8392 24.9438 26.9168C24.3225 26.9959 22.3047 26.8392 21.2188 27.075C20.1315 27.3122 19.7446 28.0197 19.3563 28.5718C18.968 29.1239 18.8451 30.0333 18.4243 30.3835C18.1942 30.5741 17.8821 30.5416 17.6491 30.3835C17.4147 30.2253 17.3385 29.9909 17.4147 29.5179C17.4938 29.0448 17.5714 28.6509 17.6491 28.2569C17.7268 27.8629 17.7268 26.9168 17.5714 26.3661C17.4147 25.8154 16.9501 25.1066 16.5618 24.7902C15.8812 24.2367 15.0382 23.8046 14.1571 24.6321C13.7123 25.0515 10.5069 30.4894 9.42247 32.4324C8.73762 33.6581 7.79296 35.7409 7.7153 36.2916C7.63763 36.8438 7.71529 37.4736 8.10361 37.9466C8.49192 38.4196 9.18948 38.7331 9.81078 38.8913C10.5465 39.0466 11.059 38.8263 11.6747 38.9704C12.272 39.1299 11.9698 39.7851 11.7368 40.2582C11.4361 40.7044 11.0054 40.7298 10.7427 41.0984C10.2556 41.7804 10.8275 42.1405 11.0435 42.4963C11.3273 42.9581 11.1 43.2504 10.7427 44.0115C10.1765 45.2174 10.8981 46.0816 11.2341 46.7693C11.573 47.4654 11.4248 49.0484 10.9503 50.0707C10.8571 50.2698 10.4321 51.2795 10.2768 51.9686C9.79243 53.6588 11.6126 55.8108 12.9159 56.459C14.7092 57.3528 21.7624 56.6171 26.7272 56.3008C31.6948 55.9859 33.635 54.0966 34.7985 52.2058C35.9621 50.315 35.7291 48.0289 35.7291 47.3991C35.7291 46.7693 35.5427 45.7526 35.4184 45.1948C34.4582 40.8724 36.2402 35.21 36.8163 34.4799C36.8686 34.3754 37.2047 34.2695 37.4362 34.559C38.6097 36.543 40.0782 38.0638 41.2333 39.0438C41.2276 43.2137 41.1895 76.4117 41.1867 79.072C41.1867 79.0748 41.2982 79.089 41.8489 79.048C42.1116 79.0297 42.4575 79.024 42.8077 78.9944C43.1339 78.9675 43.4911 78.9449 43.8216 78.911C44.2635 78.8673 44.6716 78.8263 44.9921 78.7825C45.7942 78.6724 45.8803 78.6809 45.8803 78.6611V78.4083C45.8747 66.5398 45.9001 44.7698 45.9029 42.5909C48.117 44.14 49.9315 45.2739 49.9315 45.2739L50.0826 45.3643V77.7983L50.7138 77.6246L51.5441 77.3818L52.188 77.1784L52.8926 76.9412L53.6085 76.6842L54.4741 76.3552V3.63305L53.5026 3.2645ZM28.4683 77.5597C26.5479 77.0273 24.8591 76.0177 24.8591 76.0177C24.8591 76.0177 25.3674 76.6941 26.0607 75.5404C26.6707 74.5251 25.8729 71.5485 25.1358 70.1434C24.6063 69.1324 22.95 67.6667 22.4995 66.1049C22.1084 64.738 22.2058 63.6789 21.6156 62.6312C20.7514 61.0962 19.6006 59.5062 22.5504 59.2549C26.6171 58.9089 30.9507 58.868 33.1083 59.735C34.7307 60.3846 34.9016 62.3841 35.2038 63.6253C35.561 65.0882 36.4153 68.6226 35.256 72.1811C34.1179 75.6746 32.8372 75.6138 32.2949 77.5653C32.2272 77.811 32.3768 77.9777 32.4785 78.0723C32.7666 78.3392 32.7962 78.3533 33.0066 78.4691L28.4683 77.5597Z" fill="white"/>
<path d="M39.9993 1.3443C18.6744 1.3443 1.32592 18.6846 1.32592 39.9986C1.32592 61.3139 18.6744 78.6543 39.9993 78.6543C61.3256 78.6543 78.6741 61.3139 78.6741 39.9986C78.6741 18.6846 61.3256 1.3443 39.9993 1.3443ZM39.9993 80C17.9444 80 0 62.0553 0 39.9986C0 17.9433 17.9444 -2.43821e-06 39.9993 -2.43821e-06C62.0556 -2.43821e-06 80 17.9433 80 39.9986C80 62.0553 62.0556 80 39.9993 80Z" fill="white"/>
</svg>
