<svg width="1600" height="1600" viewBox="0 0 1600 1600" fill="none" xmlns="http://www.w3.org/2000/svg">
<path d="M714.995 1318.73C752.195 1315.13 789.595 1311.53 827.195 1314.03C1058.8 1333.33 1290.4 1352.63 1522.1 1371.33C1568.6 1366.73 1569.1 1458.53 1521.6 1452.53C1293.9 1471.53 1066.2 1490.63 838.595 1510.33C783.195 1515.63 727.795 1506.93 672.795 1502.93C473.195 1484.83 273.295 1470.33 73.7952 1451.83C36.1952 1455.03 40.1952 1409.73 45.0952 1385.13C54.1952 1372.43 70.8952 1372.13 84.7952 1370.43C294.995 1354.03 504.895 1335.53 714.995 1318.73Z" fill="#E9B226"/>
<path fill-rule="evenodd" clip-rule="evenodd" d="M723.073 90.5302C929.773 77.2302 1154.77 114.03 1313.67 256.73C1479.37 406.03 1503.87 680.23 1377.37 861.33C1279.57 1001.63 1109.47 1071.83 945.073 1094.23C761.673 1117.13 566.973 1102.63 400.973 1015.73C303.073 965.03 218.173 882.73 176.973 779.13C111.673 622.13 135.373 427.23 247.273 297.03C364.473 160.33 548.173 101.93 723.073 90.5302ZM722.173 300.93C633.073 323.03 569.673 404.53 551.373 491.93C530.673 591.83 534.973 703.73 589.873 792.43C676.173 937.03 919.873 938.23 1007.57 794.43C1050.27 727.73 1062.67 645.73 1058.57 567.73C1053.87 487.03 1026.97 403.23 965.773 347.63C899.673 291.43 804.273 279.13 722.173 300.93Z" fill="#08107B"/>
</svg>
