<?xml version="1.0" encoding="UTF-8" standalone="no"?>
<!DOCTYPE svg PUBLIC "-//W3C//DTD SVG 1.1//EN" "http://www.w3.org/Graphics/SVG/1.1/DTD/svg11.dtd">
<svg width="100%" height="100%" viewBox="0 0 168 167" version="1.1" xmlns="http://www.w3.org/2000/svg" xmlns:xlink="http://www.w3.org/1999/xlink" xml:space="preserve" xmlns:serif="http://www.serif.com/" style="fill-rule:evenodd;clip-rule:evenodd;stroke-linejoin:round;stroke-miterlimit:2;">
    <g>
        <g transform="matrix(1.06582,0,0,1.05671,-9.59241,-9.5104)">
            <rect x="9" y="9" width="158" height="158.7"/>
        </g>
        <path d="M36.9,65.7L36.9,93.6C36.9,94.8 36.9,96 37,97.1C37.1,98.2 37.3,99.2 37.6,100C38,100.8 38.5,101.4 39.3,101.9C40,102.4 41.1,102.6 42.5,102.6C44.7,102.6 46.3,101.9 47.1,100.6C47.9,99.3 48.4,97 48.4,93.9L48.4,65.6L52.8,65.6L52.8,93.6C52.8,94.3 52.8,95.1 52.7,96.1C52.7,97 52.5,98 52.4,98.9C52.2,99.8 51.9,100.8 51.5,101.7C51.1,102.6 50.5,103.4 49.7,104.1C48.9,104.8 48,105.4 46.8,105.8C45.6,106.2 44.2,106.5 42.4,106.5C39.9,106.5 38,106.1 36.6,105.3C35.2,104.5 34.2,103.5 33.6,102.3C33,101.1 32.6,99.7 32.5,98.2C32.4,96.7 32.3,95.2 32.3,93.7L32.3,65.7L36.9,65.7Z" style="fill:white;fill-rule:nonzero;"/>
        <path d="M56.9,65.6L61.8,65.6L67.2,80L72.8,65.6L77.3,65.6L69.4,84L78.3,105.6L73.1,105.6L66.7,89L60.3,105.7L55.8,105.7L64.6,84.8L56.9,65.6Z" style="fill:white;fill-rule:nonzero;"/>
        <path d="M82.2,65.6L90,65.6C92.1,65.6 93.9,65.8 95.4,66.2C96.8,66.6 98.1,67.5 99.2,68.8C99.5,69.2 99.8,69.6 100.1,70.1C100.4,70.6 100.7,71.2 101,71.9C101.3,72.6 101.5,73.4 101.6,74.3C101.8,75.2 101.8,76.3 101.8,77.5C101.8,79.1 101.6,80.6 101.2,82C100.8,83.4 100.2,84.7 99.3,85.8C98.4,86.9 97.3,87.7 95.9,88.4C94.5,89 92.8,89.3 90.7,89.3L86.8,89.3L86.8,105.6L82.2,105.6L82.2,65.6ZM86.7,85.5L90.6,85.5C91.5,85.5 92.4,85.4 93.2,85.2C94,85 94.7,84.6 95.3,84.1C95.9,83.5 96.4,82.7 96.7,81.7C97,80.7 97.2,79.3 97.2,77.7C97.2,75.7 96.9,74.1 96.4,73C95.9,71.9 95.2,71.1 94.5,70.6C93.8,70.1 93,69.8 92.2,69.7C91.4,69.6 90.8,69.6 90.2,69.6L86.7,69.6L86.7,85.5Z" style="fill:white;fill-rule:nonzero;"/>
        <path d="M109.8,65.6L109.8,70.7L105.3,70.7L105.3,65.6L109.8,65.6ZM105.5,76L109.6,76L109.6,105.6L105.5,105.6L105.5,76Z" style="fill:white;fill-rule:nonzero;"/>
        <path d="M114.5,76L118.1,76L118.1,80.5C118.2,80.2 118.4,79.7 118.7,79.1C119,78.5 119.4,77.9 119.9,77.4C120.4,76.8 121.1,76.3 121.8,75.9C122.6,75.5 123.5,75.3 124.6,75.3C125.9,75.3 127,75.6 127.9,76.1C128.8,76.7 129.6,77.4 130,78.3C130.5,79.2 130.8,80.4 130.9,82C131,83.5 131,85.1 131,86.8L131,105.6L127,105.6L127,86.9C127,86 127,85.1 126.9,84.1C126.9,83.2 126.7,82.4 126.5,81.6C126.3,80.9 125.9,80.3 125.4,79.8C124.9,79.3 124.2,79.1 123.3,79.1C122.2,79.1 121.4,79.4 120.7,80.1C120.1,80.8 119.6,81.6 119.3,82.5C119,83.5 118.8,84.5 118.7,85.6C118.6,86.7 118.6,87.7 118.6,88.5L118.6,105.6L114.5,105.6L114.5,76Z" style="fill:white;fill-rule:nonzero;"/>
    </g>
</svg>
